<?xml version="1.0" encoding="UTF-8"?><svg id="Layer_2" xmlns="http://www.w3.org/2000/svg" viewBox="0 0 452.04 41.89"><defs><style>.cls-1{fill:#221f20;}</style></defs><g id="Layer_1-2"><path class="cls-1" d="M.26,1.22c1.22,0,4.24.19,5.95.19h5.86c2.14,0,3.89-.13,4.81-.32-.13,2-.17,8.06-.13,10.18l-.83.06c-.26-2.26-.52-3.8-1.09-5.41-.74-2.26-1.53-2.96-4.55-2.96h-1.14c-.52,0-.61.45-.66,1.1-.09,2-.17,5.54-.17,9.73v5.93h1.75c2.54,0,3.28-1.55,3.54-5.29h.79c-.22,3.74-.22,10.38-.09,13.02h-.79c-.44-4.06-.87-6.06-3.41-6.06-.44,0-1.31-.06-1.79.06v4.64c0,4.77.09,9.67.17,11.79.04,1.22.31,1.55,2.1,1.55,2.76,0,3.63-.26,4.81-2.06,1.22-1.8,1.79-4.9,2.27-7.09l.74.26c-.04,1.74-.74,9.28-.96,10.76-1.31-.19-3.19-.32-6.74-.32h-4.59c-2.19,0-4.94.19-6.12.19l.09-1.35,1.62-.26c.66-.06.92-.45,1.01-1.74.13-2.26.22-6.12.22-11.92v-11.41c0-6.25-.04-8.77-.09-10.63-.04-.97-.48-1.16-1.22-1.22l-1.36-.13v-1.29Z"/><path class="cls-1" d="M31.4,24.29c0,7.61.09,11.73.13,13.41.04,1.16.31,1.61.92,1.68,1.05.19,1.4.39,2.41.45l-.17,1.35c-.96,0-3.67-.19-6.25-.19-1.79,0-4.24.19-5.73.19l-.13-1.29c.61-.06,1.14-.19,2.01-.39.74-.13,1.27-.45,1.31-1.61.04-2.13.13-5.74.13-13.54v-12.05c0-4.19,0-7.8-.04-9.47-3.15,0-3.54.71-4.24,3.03-.83,2.45-1.22,4.83-1.62,6.57l-.83-.32c.35-2.19.61-8.51.7-11.21,1.14.26,3.67.52,6.95.52h3.46c4.07,0,6.08-.13,7.52-.52-.04.9-.39,6.64-.31,10.63l-.83.45c-.35-3.03-.87-5.54-1.27-6.83-.44-1.68-1.09-2.51-4.07-2.32-.04,1.74-.04,5.09-.04,8.83v12.63Z"/><path class="cls-1" d="M42.12,15.01c0-5.54,0-8.57-.04-10.57-.04-1.61-.57-1.87-2.45-1.93l.04-1.29c1.14,0,3.63.19,4.81.19s4.37-.19,5.42-.19l-.04,1.29c-1.57,0-2.14.39-2.19,2.06-.09,1.8-.17,5.29-.17,8.96v5.74c.74.06,1.88.06,3.11.06s2.23,0,3.24-.06v-6.51c0-4.58-.04-6.7-.09-8.51-.04-1.42-.66-1.68-2.14-1.74l.04-1.29c1.18.06,3.98.19,4.9.19,1.62,0,4.33-.06,5.12-.19v1.29c-1.84.13-2.19.39-2.27,1.74-.13,1.93-.17,5.87-.17,9.8v12.7c0,5.41.04,9.99.17,11.73.04.97.44,1.1,2.49,1.35l-.13,1.35c-1.05,0-3.19-.19-5.38-.19-1.92,0-3.98.13-4.85.19v-1.35c1.62-.26,2.1-.45,2.14-1.93.04-1.29.17-4.38.17-9.99v-6.77c-.87-.06-2.01-.13-3.28-.13s-2.32.06-3.06.13v7.15c0,5.03.09,8.12.13,9.67.04,1.61.7,1.8,2.32,1.87v1.35c-1.22,0-3.72-.19-5.82-.19-1.53,0-3.06.19-4.72.19v-1.35c1.88-.13,2.45-.32,2.49-1.8s.22-4.64.22-9.73v-13.28Z"/><path class="cls-1" d="M83.89,41.18c-.87-.06-2.93-.19-5.29-.19-1.92,0-3.54.13-5.25.19l.09-1.35c1.79-.32,2.06-.52,1.88-1.93-.26-2.32-.96-7.73-1.53-12.05-.74-.06-1.79-.06-2.84-.06s-2.06,0-2.8.06c-1.05,6.45-1.4,9.09-1.57,10.7-.22,2.38.13,2.84,2.97,3.29l.04,1.35c-1.14,0-2.32-.19-3.85-.19-1.09,0-2.67.19-3.89.19v-1.35c2.01-.26,2.41-.64,3.02-3.61,1.18-5.93,4.77-25.91,5.6-30.74.22-1.35.39-2.32.48-3.54,1.01-.06,3.85-.71,4.68-1.35,1.14,8.83,4.77,33.39,5.77,37.51.26,1.03.52,1.42,1.14,1.48l1.36.26v1.35ZM68.49,24.03c.66,0,1.71.06,2.62.06s1.88-.06,2.41-.06c-.7-5.54-1.57-12.96-2.19-17.6-.66,4-1.53,8.64-2.84,17.6Z"/><path class="cls-1" d="M83.8,1.22c.61,0,2.54.19,4.16.19,1.22,0,2.19,0,3.76-.19.31,1.03.7,2.45,1.62,5.09,1.01,3.03,3.59,10.31,8.05,23.01,0-15.28-.13-22.11-.26-23.85-.17-2.06-.52-2.64-1.79-2.84l-1.49-.13.17-1.29c1.22,0,2.76.19,3.98.19s2.45-.19,3.54-.19v1.29c-.61.13-1.09.19-1.66.45-.48.19-.7.71-.83,2-.26,2.38-.52,10.57-.52,20.62v15.47c-.7,0-2.32.32-3.06.64-2.84-8.57-7.96-23.4-11.59-34.22,0,18.05.13,27.01.26,29.65.09,1.42.52,2.06,1.22,2.19.48.13,1.49.39,2.27.52l-.04,1.35c-1.14,0-2.84-.19-4.64-.19-1.66,0-2.71.19-3.5.19v-1.35c.39,0,1.09-.19,1.62-.39.74-.26,1.01-1.16,1.14-2.71.17-2.45.61-13.08.61-31.13,0-.45-.13-1.03-.44-1.87-.22-.58-.48-.77-1.01-.97l-1.57-.26v-1.29Z"/><path class="cls-1" d="M154.32,41.18c-.87-.06-2.93-.19-5.29-.19-1.92,0-3.54.13-5.25.19l.09-1.35c1.79-.32,2.06-.52,1.88-1.93-.26-2.32-.96-7.73-1.53-12.05-.74-.06-1.79-.06-2.84-.06s-2.06,0-2.8.06c-1.05,6.45-1.4,9.09-1.57,10.7-.22,2.38.13,2.84,2.97,3.29l.04,1.35c-1.14,0-2.32-.19-3.85-.19-1.09,0-2.67.19-3.89.19v-1.35c2.01-.26,2.41-.64,3.02-3.61,1.18-5.93,4.77-25.91,5.6-30.74.22-1.35.39-2.32.48-3.54,1.01-.06,3.85-.71,4.68-1.35,1.14,8.83,4.77,33.39,5.77,37.51.26,1.03.52,1.42,1.14,1.48l1.36.26v1.35ZM138.92,24.03c.66,0,1.71.06,2.62.06s1.88-.06,2.41-.06c-.7-5.54-1.57-12.96-2.19-17.6-.66,4-1.53,8.64-2.84,17.6Z"/><path class="cls-1" d="M171.77,13.01c-.31-4.19-1.31-10.83-4.68-10.83-1.57,0-2.58.97-3.59,3.67-1.22,3.22-2.06,9.09-2.06,15.28,0,4.77.39,9.15,1.27,12.38.87,3.54,2.32,5.41,4.55,5.41,1.92,0,4.2-1.48,5.38-7.93l.87.77c-1.05,6.83-3.67,10.12-8.09,10.12-4.02,0-6.52-2.38-8.09-6.51-1.27-3.22-1.97-8.19-1.97-13.28,0-7.54,1.4-13.15,3.81-16.95,1.84-2.96,4.24-4.58,7.26-4.58,2.67,0,4.2,1.1,5.07,2.77l.57-2.77.83.39c-.26,3.74-.39,8.77-.22,11.79l-.92.26Z"/><path class="cls-1" d="M177.85,14.56c0-5.41-.04-8.7-.09-10.18-.04-1.55-.39-1.68-2.32-1.87l.04-1.29c.87,0,3.11.19,4.99.19,2.23,0,4.24-.19,5.16-.19l.04,1.29c-1.92.26-2.19.32-2.27,1.8-.04,1.74-.17,5.16-.17,10.44v6.06c3.02-3.67,6.74-12.83,7.87-16.5.31-.97.17-1.29-.35-1.35l-2.06-.39.31-1.35c1.05,0,1.97.19,3.63.19,1.44,0,2.76-.13,3.85-.19l.04,1.29c-1.88.13-2.76.71-3.46,1.8-1.22,2.13-3.67,7.93-5.47,11.54,1.62,5.67,5.99,19.08,7.39,22.24.61,1.29.87,1.48,2.71,1.68l-.17,1.42c-1.84-.19-3.15-.13-4.42,0-1.49.13-2.67.32-3.54.52-.7-2.58-4.16-13.54-5.34-17.72-.35-1.03-.61-2.06-1.01-2.06v5.22c0,6.06.13,9.22.17,10.76.09,1.55.31,1.61,2.54,1.93l-.04,1.35c-1.09,0-3.19-.19-5.47-.19-1.97,0-4.55.19-5.34.19l.04-1.35c2.1-.26,2.45-.39,2.54-1.93.09-1.22.17-4.71.17-10.31v-13.02Z"/><path class="cls-1" d="M211.4,29.13c-.17,5.99,1.92,11.15,5.29,11.15,2.06,0,3.41-2.32,3.41-6.25,0-2.58-.52-4.32-1.44-5.54-.7-.97-3.81-4.77-5.47-7.09-1.97-2.58-2.71-5.74-2.71-9.15,0-7.22,2.93-11.73,7.35-11.73,2.01,0,5.16.84,5.86,2.07l.37-2.58.74.32c-.52,4.96-.19,8.76-.19,10.76l-.83.26c-.09-5.67-3.63-9.29-5.81-9.29s-3.28,2.64-3.28,6.19c0,2.13.57,4.38,1.71,5.74,3.15,3.93,4.72,5.74,6.17,7.54,1.49,1.93,2.19,4.9,2.19,8.31-.04,7.28-3.11,11.99-8.49,11.99-2.32,0-4.68-1.1-6.04-2.06.22-3.35.26-7.67.31-10.31l.87-.32Z"/><path class="cls-1" d="M226.97,1.22c2.76.19,3.94.19,4.9.19,1.49,0,2.8-.13,3.32-.19.7,4.12,3.46,15.86,5.55,26.17,1.84-8.96,4.42-23.01,4.94-26.17.74.06,1.57.19,3.06.19,2.06,0,3.63-.19,4.85-.19l.09,1.29c-.61.06-1.44.26-1.97.39-.39.13-.61.52-.61,1.29-.04,1.16.04,3.8,0,8.64-.09,10.25.04,21.33.17,24.49.09,1.74.35,2.19,1.01,2.26l1.57.32-.04,1.29c-.92-.13-3.54-.19-5.25-.19s-3.24.13-5.25.19l.09-1.29c1.79-.26,2.1-.64,2.14-1.87.13-3.54.35-19.66.66-33.77h-.04c-2.97,16.37-5.34,31-6.25,36.16l-2.54.97c-1.18-8.06-4.9-26.3-6.74-36.87h-.09c0,14.76.17,24.17.26,30.87.04,2.84.26,3.87,1.36,4.06l1.97.45v1.29c-1.18,0-2.76-.19-4.24-.19s-2.89.19-3.67.19v-1.29c.52-.06,1.01-.19,1.57-.39.79-.26,1.36-.9,1.4-4.58.04-3.87.35-15.86.35-30.55l-.09-.77c-.09-.39-.39-.71-1.01-.84l-1.53-.26.04-1.29Z"/><path class="cls-1" d="M257.76,13.85c0-6.19-.04-7.99-.09-9.35-.04-1.55-.35-1.74-2.45-2l.04-1.29c1.05,0,3.28.19,5.03.19,1.88,0,3.98-.19,5.2-.19v1.29c-1.88.19-2.19.39-2.23,1.74-.04,1.42-.13,4.51-.13,9.54v13.92c0,5.54.13,8.38.17,10.05s.35,1.87,2.32,2.06l-.09,1.35c-1.14,0-3.11-.19-5.25-.19-1.92,0-4.33.13-5.2.19l.04-1.35c2.06-.19,2.41-.45,2.45-1.93.09-1.35.17-4.45.17-10.05v-13.99Z"/><path class="cls-1" d="M279.54,24.29c0,7.61.09,11.73.13,13.41.04,1.16.31,1.61.92,1.68,1.05.19,1.4.39,2.41.45l-.17,1.35c-.96,0-3.67-.19-6.25-.19-1.79,0-4.24.19-5.73.19l-.13-1.29c.61-.06,1.14-.19,2.01-.39.74-.13,1.27-.45,1.31-1.61.04-2.13.13-5.74.13-13.54v-12.05c0-4.19,0-7.8-.04-9.47-3.15,0-3.54.71-4.24,3.03-.83,2.45-1.22,4.83-1.62,6.57l-.83-.32c.35-2.19.61-8.51.7-11.21,1.14.26,3.67.52,6.95.52h3.46c4.07,0,6.08-.13,7.52-.52-.04.9-.39,6.64-.31,10.63l-.83.45c-.35-3.03-.87-5.54-1.27-6.83-.44-1.68-1.09-2.51-4.07-2.32-.04,1.74-.04,5.09-.04,8.83v12.63Z"/><path class="cls-1" d="M290.26,15.01c0-5.54,0-8.57-.04-10.57-.04-1.61-.57-1.87-2.45-1.93l.04-1.29c1.14,0,3.63.19,4.81.19s4.37-.19,5.42-.19l-.04,1.29c-1.57,0-2.14.39-2.19,2.06-.09,1.8-.17,5.29-.17,8.96v5.74c.74.06,1.88.06,3.11.06s2.23,0,3.24-.06v-6.51c0-4.58-.04-6.7-.09-8.51-.04-1.42-.66-1.68-2.14-1.74l.04-1.29c1.18.06,3.98.19,4.9.19,1.62,0,4.33-.06,5.12-.19v1.29c-1.84.13-2.19.39-2.27,1.74-.13,1.93-.17,5.87-.17,9.8v12.7c0,5.41.04,9.99.17,11.73.04.97.44,1.1,2.49,1.35l-.13,1.35c-1.05,0-3.19-.19-5.38-.19-1.92,0-3.98.13-4.85.19v-1.35c1.62-.26,2.1-.45,2.14-1.93.04-1.29.17-4.38.17-9.99v-6.77c-.87-.06-2.01-.13-3.28-.13s-2.32.06-3.06.13v7.15c0,5.03.09,8.12.13,9.67.04,1.61.7,1.8,2.32,1.87v1.35c-1.22,0-3.72-.19-5.82-.19-1.53,0-3.06.19-4.72.19v-1.35c1.88-.13,2.45-.32,2.49-1.8s.22-4.64.22-9.73v-13.28Z"/><path class="cls-1" d="M311.43,1.22c1.22,0,4.24.19,5.95.19h5.86c2.14,0,3.89-.13,4.81-.32-.13,2-.17,8.06-.13,10.18l-.83.06c-.26-2.26-.52-3.8-1.09-5.41-.74-2.26-1.53-2.96-4.55-2.96h-1.14c-.52,0-.61.45-.66,1.1-.09,2-.17,5.54-.17,9.73v5.93h1.75c2.54,0,3.28-1.55,3.54-5.29h.79c-.22,3.74-.22,10.38-.09,13.02h-.79c-.44-4.06-.87-6.06-3.41-6.06-.44,0-1.31-.06-1.79.06v4.64c0,4.77.09,9.67.17,11.79.04,1.22.31,1.55,2.1,1.55,2.76,0,3.63-.26,4.81-2.06,1.22-1.8,1.79-4.9,2.27-7.09l.74.26c-.04,1.74-.74,9.28-.96,10.76-1.31-.19-3.19-.32-6.74-.32h-4.59c-2.19,0-4.94.19-6.12.19l.09-1.35,1.62-.26c.66-.06.92-.45,1.01-1.74.13-2.26.22-6.12.22-11.92v-11.41c0-6.25-.04-8.77-.09-10.63-.04-.97-.48-1.16-1.22-1.22l-1.36-.13v-1.29Z"/><path class="cls-1" d="M343.23,39.89c1.92-.19,2.41-.32,2.45-1.55.09-2,.22-6.57.22-11.47v-13.73c0-4.96,0-7.28-.13-9.35-.04-.84-.7-1.1-2.58-1.29v-1.29c1.22,0,2.97.19,4.85.19,1.18,0,3.28-.19,5.6-.19,3.76,0,5.07.71,6.21,2.19s1.62,3.87,1.62,6.7c0,4.32-1.53,6.57-2.8,7.67-.96.84-1.97,1.29-3.24,1.68v.39c2.41.52,4.02,1.16,5.29,2.64,1.18,1.42,2.01,3.48,2.01,7.15,0,3.93-.92,6.83-2.67,8.77-1.79,2-4.51,2.71-7.52,2.71-1.57,0-3.32-.06-4.85-.13-.87,0-3.19.19-4.46.19v-1.29ZM351.28,19.14c.39.06,1.05.06,1.4.06,2.01,0,3.19-1.87,3.19-8.44,0-2.71-.22-4.38-.66-5.87-.44-1.29-1.44-2.19-2.67-2.19-1.01,0-1.14.26-1.14,1.03-.04,1.8-.13,3.93-.13,7.35v8.06ZM351.28,29.77c0,4.32.04,6.77.13,8.7.04.71.39,1.16,1.18,1.16,1.57,0,2.58-.97,3.19-2.84.52-1.55.83-4.38.83-7.35s-.17-5.16-.79-6.64c-.61-1.42-1.75-2.13-3.19-2.13-.44,0-1.05.06-1.36.19v8.89Z"/><path class="cls-1" d="M379.1,41.18c-1.92,0-4.51-.19-6.39-.19-2.06,0-3.85.19-5.69.19l-.09-1.35c.87-.19,1.49-.32,2.1-.45.83-.13,1.14-.71,1.18-2.19.13-2.26.22-8.96.26-12.89,0-.9-.13-1.87-.39-2.9-1.05-4.12-3.06-11.79-4.51-16.11-.74-2.32-1.14-2.64-3.06-2.77l-.04-1.29c1.05,0,3.54.19,5.34.19,2.45,0,4.16-.19,5.29-.19l.04,1.29-1.44.26c-.57.13-.57.77-.31,1.8.52,2.32,2.49,10.31,3.85,15.47,2.01-7.73,2.93-11.99,3.5-14.82.35-1.87.17-2.26-.39-2.38-.7-.13-1.31-.26-1.88-.39l.09-1.22c.66,0,2.1.19,3.54.19s2.27-.19,3.54-.19l.09,1.29c-2.01.19-2.45.52-3.24,2.84-1.31,3.74-3.19,11.15-4.37,15.73-.22.9-.26,1.74-.26,2.84-.04,3.93-.04,11.28.13,14.12.04.77.17,1.22.7,1.35.48.13,1.27.26,2.32.45l.09,1.35Z"/><path class="cls-1" d="M385.48,15.72c0-7.73-.04-10.25-.09-11.67-.04-.84-.26-1.16-.92-1.29l-1.84-.26.17-1.29c.83,0,2.71.19,4.59.19,1.71,0,3.63-.19,5.51-.19,3.94,0,5.51.9,6.56,2.38,1.14,1.68,1.62,4.12,1.62,6.64,0,6.45-2.93,9.28-6.74,10.18v.26c4.85.97,6.56,4,6.91,8.89.22,2.64.44,6.38.48,7.67.04,2,.74,2.77,1.66,2.77.35,0,.48-.06.79-.19l-.17,1.35c-.52.26-1.66.39-2.54.39-3.67,0-5.51-2.13-5.77-7.99-.09-2.19-.13-4.77-.22-6.57-.22-4.38-1.18-5.48-3.89-5.48h-.74v5.8c0,5.87.09,8.77.13,10.57.04,1.48.17,1.61,2.45,1.93l-.09,1.35c-1.09,0-3.41-.19-5.29-.19s-4.07.19-5.25.19v-1.35c2.06-.19,2.45-.52,2.54-1.8.09-1.35.13-4.71.13-11.02v-11.28ZM390.86,20.1h.74c3.37,0,3.89-3.93,3.89-9.09,0-2.71-.22-4.77-.61-5.99-.39-1.29-1.31-2.32-2.62-2.32-.35,0-.48.06-.79.13-.26.06-.39.32-.48,1.03-.04.97-.13,3.48-.13,10.12v6.12Z"/><path class="cls-1" d="M404.33,1.22c.61,0,2.54.19,4.16.19,1.22,0,2.19,0,3.76-.19.31,1.03.7,2.45,1.62,5.09,1.01,3.03,3.59,10.31,8.05,23.01,0-15.28-.13-22.11-.26-23.85-.17-2.06-.52-2.64-1.79-2.84l-1.49-.13.17-1.29c1.22,0,2.76.19,3.98.19s2.45-.19,3.54-.19v1.29c-.61.13-1.09.19-1.66.45-.48.19-.7.71-.83,2-.26,2.38-.52,10.57-.52,20.62v15.47c-.7,0-2.32.32-3.06.64-2.84-8.57-7.96-23.4-11.59-34.22,0,18.05.13,27.01.26,29.65.09,1.42.52,2.06,1.22,2.19.48.13,1.49.39,2.27.52l-.04,1.35c-1.14,0-2.84-.19-4.64-.19-1.66,0-2.71.19-3.5.19v-1.35c.39,0,1.09-.19,1.62-.39.74-.26,1.01-1.16,1.14-2.71.17-2.45.61-13.08.61-31.13,0-.45-.13-1.03-.44-1.87-.22-.58-.48-.77-1.01-.97l-1.57-.26v-1.29Z"/><path class="cls-1" d="M426.6,1.22c1.22,0,4.24.19,5.95.19h5.86c2.14,0,3.89-.13,4.81-.32-.13,2-.17,8.06-.13,10.18l-.83.06c-.26-2.26-.52-3.8-1.09-5.41-.74-2.26-1.53-2.96-4.55-2.96h-1.14c-.52,0-.61.45-.66,1.1-.09,2-.17,5.54-.17,9.73v5.93h1.75c2.54,0,3.28-1.55,3.54-5.29h.79c-.22,3.74-.22,10.38-.09,13.02h-.79c-.44-4.06-.87-6.06-3.41-6.06-.44,0-1.31-.06-1.79.06v4.64c0,4.77.09,9.67.17,11.79.04,1.22.31,1.55,2.1,1.55,2.76,0,3.63-.26,4.81-2.06,1.22-1.8,1.79-4.9,2.27-7.09l.74.26c-.04,1.74-.74,9.28-.96,10.76-1.31-.19-3.19-.32-6.74-.32h-4.59c-2.19,0-4.94.19-6.12.19l.09-1.35,1.62-.26c.66-.06.92-.45,1.01-1.74.13-2.26.22-6.12.22-11.92v-11.41c0-6.25-.04-8.77-.09-10.63-.04-.97-.48-1.16-1.22-1.22l-1.36-.13v-1.29Z"/><path class="cls-1" d="M449.67,36.32c1.37,0,2.37,1.09,2.37,2.6s-1.11,2.6-2.44,2.6-2.44-1.06-2.44-2.6,1.11-2.6,2.48-2.6h.04Z"/><path class="cls-1" d="M129.56,1.41c-2.02,0-3.76-.24-4.74-.24l-.13,1.82c.6.06,1.38.18,1.95.3s.77.67.77,1.64c.03,1.76.07,4.31.07,8.07v9.8l-.18,13.14c-.03,1.76-4.15,3.07-5.26,2.61-1-.42-2.98-3.42-1.87-4.45,1.45-1.35,1.6-2.08,1.6-3.17,0-.91.12-2.23-1.88-2.45-2.75-.3-4.08,2.2-3.87,4.98.42,5.52,4.35,8.76,9.64,7.85,3.04-.52,6-2.68,6.04-6.39l.26-26.93c.05-1.5.09-2.53.11-3.11.03-1.09.2-1.52,1.04-1.7l1.24-.18.07-1.82c-1.04,0-3.13.24-4.84.24Z"/></g></svg>