<svg xmlns="http://www.w3.org/2000/svg" version="1.1" xmlns:xlink="http://www.w3.org/1999/xlink" width="1000" height="1000"><metadata><rdf:RDF xmlns:rdf="http://www.w3.org/1999/02/22-rdf-syntax-ns#" xmlns:dc="http://purl.org/dc/elements/1.1/"><rdf:Description><dc:creator>RealFaviconGenerator</dc:creator><dc:source>https://realfavicongenerator.net</dc:source></rdf:Description></rdf:RDF></metadata><style>
    #light-icon {
      display: inline;
    }
    #dark-icon {
      display: none;
    }

    @media (prefers-color-scheme: dark) {
      #light-icon {
        display: none;
      }
      #dark-icon {
        display: inline;
      }
    }
  </style><g id="light-icon"><svg xmlns="http://www.w3.org/2000/svg" version="1.1" xmlns:xlink="http://www.w3.org/1999/xlink" width="1000" height="1000"><g><g transform="matrix(1.9089798411728771,0,0,1.9089798411728771,0,191.1175167990226)"><svg xmlns="http://www.w3.org/2000/svg" id="Layer_2" viewBox="0 0 523.84 323.61" width="523.84" height="323.61"><g id="Layer_1-2"><path d="M495.82,166.22c-7.84-4.92-23.59-9.04-34.21-9.83l-.5.03c9.29-3.5,17.36-6.52,25.15-11.4,29.04-18.23,40.16-51.23,34.05-84.41C513.35,22.81,479.24.07,441.47.05l-89.39-.05-.08,8.25,15.89,5.15c4.91,1.59,7.81,7.67,7.81,13.46v265.69c0,4.7-1.86,9.01-4.86,11.89-.67.46-1.39.83-2.17,1.08l-16.4,5.9-.23.07-.06,8.28h73.2s20.23.24,20.23.24c37.77-.02,68.71-23.9,75.67-61.69,6.11-33.17,3.76-73.87-25.27-92.09ZM437.53,11.25c21.35-.14,29.97,21.54,32.59,41.73,3.13,24.1,3.56,59.75-4.79,82.02-3.88,8.65-11.06,15.25-20.78,15.54l-22.25.67V11.35s15.22-.1,15.22-.1ZM470.91,265.94c-2.63,20.19-11.24,41.88-32.59,41.73l-6.46-.04c-.56-.22-1.12-.45-1.68-.71-3.44-1.55-5.93-5.23-7.08-9.3v-129.92s22.25.67,22.25.67c9.72.29,16.89,6.9,20.78,15.54,8.35,22.27,7.92,57.93,4.79,82.02Z"></path><path d="M91.3,163.98l-20.51-.93v149.44s34.86-.17,34.86-.17c14.22-.07,25.73-8.07,33.05-19.85,12.48-22.41,14.41-49.33,17.76-74.56l8.83-.07v105.78s-165.14-.01-165.14-.01l-.16-8.25,12.27-3.46c6.19-1.75,11.46-7.1,11.46-14.72l.02-266.28c0-5.53-3.19-11.47-7.64-13.52C10.8,14.91,5.8,13.78.09,12.2L.18,3.85h160.47s-.03,105.79-.03,105.79l-8.83.1c-3.19-26.17-5.53-55.18-19.19-78.05-6.46-9.4-15.94-16.54-27.8-16.57l-34.02-.08v136.87s18.07-.82,18.07-.82c21.53-.98,24.56-36.71,27.48-57.48l8.94.1v128.64s-8.88.04-8.88.04c-2.53-21.19-2.51-57.39-25.1-58.42Z"></path><path d="M204.61,231.91c10.18-6.49,24.37-5.68,31.56,4.01,9.42,12.68,4.16,30.17-8.64,38.16l-10.35,7.71c-4.39,3.27-5.15,9.59-2.27,14.4,6.83,11.42,21.51,16.67,33.97,11.22,13.94-6.09,15.96-30.49,15.96-47.08V27.39c.01-7.19-3.87-13.28-10.38-14.99l-15.51-4.09.2-8.29h95.93s.02,8.32.02,8.32l-14.91,4.54c-4.92,1.5-7.79,7.69-7.79,13.33l-.09,222.56c-.01,35.23-18.84,65.15-54.37,71.76-15.81,2.94-31.95,1.08-45.21-8.35-15.9-11.32-23.75-29.81-23.65-49.24.06-12.46,4.62-24.04,15.55-31.01Z"></path></g></svg></g></g></svg></g><g id="dark-icon"><svg xmlns="http://www.w3.org/2000/svg" version="1.1" xmlns:xlink="http://www.w3.org/1999/xlink" width="1000" height="1000"><g clip-path="url(#SvgjsClipPath1044)"><rect width="1000" height="1000" fill="#ffffff"></rect><g transform="matrix(1.336285888821014,0,0,1.336285888821014,150,283.7822617593158)"><svg xmlns="http://www.w3.org/2000/svg" id="Layer_2" viewBox="0 0 523.84 323.61" width="523.84" height="323.61"><g id="Layer_1-2"><path d="M495.82,166.22c-7.84-4.92-23.59-9.04-34.21-9.83l-.5.03c9.29-3.5,17.36-6.52,25.15-11.4,29.04-18.23,40.16-51.23,34.05-84.41C513.35,22.81,479.24.07,441.47.05l-89.39-.05-.08,8.25,15.89,5.15c4.91,1.59,7.81,7.67,7.81,13.46v265.69c0,4.7-1.86,9.01-4.86,11.89-.67.46-1.39.83-2.17,1.08l-16.4,5.9-.23.07-.06,8.28h73.2s20.23.24,20.23.24c37.77-.02,68.71-23.9,75.67-61.69,6.11-33.17,3.76-73.87-25.27-92.09ZM437.53,11.25c21.35-.14,29.97,21.54,32.59,41.73,3.13,24.1,3.56,59.75-4.79,82.02-3.88,8.65-11.06,15.25-20.78,15.54l-22.25.67V11.35s15.22-.1,15.22-.1ZM470.91,265.94c-2.63,20.19-11.24,41.88-32.59,41.73l-6.46-.04c-.56-.22-1.12-.45-1.68-.71-3.44-1.55-5.93-5.23-7.08-9.3v-129.92s22.25.67,22.25.67c9.72.29,16.89,6.9,20.78,15.54,8.35,22.27,7.92,57.93,4.79,82.02Z"></path><path d="M91.3,163.98l-20.51-.93v149.44s34.86-.17,34.86-.17c14.22-.07,25.73-8.07,33.05-19.85,12.48-22.41,14.41-49.33,17.76-74.56l8.83-.07v105.78s-165.14-.01-165.14-.01l-.16-8.25,12.27-3.46c6.19-1.75,11.46-7.1,11.46-14.72l.02-266.28c0-5.53-3.19-11.47-7.64-13.52C10.8,14.91,5.8,13.78.09,12.2L.18,3.85h160.47s-.03,105.79-.03,105.79l-8.83.1c-3.19-26.17-5.53-55.18-19.19-78.05-6.46-9.4-15.94-16.54-27.8-16.57l-34.02-.08v136.87s18.07-.82,18.07-.82c21.53-.98,24.56-36.71,27.48-57.48l8.94.1v128.64s-8.88.04-8.88.04c-2.53-21.19-2.51-57.39-25.1-58.42Z"></path><path d="M204.61,231.91c10.18-6.49,24.37-5.68,31.56,4.01,9.42,12.68,4.16,30.17-8.64,38.16l-10.35,7.71c-4.39,3.27-5.15,9.59-2.27,14.4,6.83,11.42,21.51,16.67,33.97,11.22,13.94-6.09,15.96-30.49,15.96-47.08V27.39c.01-7.19-3.87-13.28-10.38-14.99l-15.51-4.09.2-8.29h95.93s.02,8.32.02,8.32l-14.91,4.54c-4.92,1.5-7.79,7.69-7.79,13.33l-.09,222.56c-.01,35.23-18.84,65.15-54.37,71.76-15.81,2.94-31.95,1.08-45.21-8.35-15.9-11.32-23.75-29.81-23.65-49.24.06-12.46,4.62-24.04,15.55-31.01Z"></path></g></svg></g></g><defs><clipPath id="SvgjsClipPath1044"><rect width="1000" height="1000" x="0" y="0" rx="250" ry="250"></rect></clipPath></defs></svg></g></svg>